<?xml version="1.0" encoding="UTF-8" standalone="no"?>
<!DOCTYPE svg PUBLIC "-//W3C//DTD SVG 1.1//EN"
 "http://www.w3.org/Graphics/SVG/1.1/DTD/svg11.dtd">
<!-- Generated by graphviz version 2.42.4 (0)
 -->
<!-- Title: G Pages: 1 -->
<svg width="1541pt" height="101pt"
 viewBox="0.00 0.00 1541.00 101.00" xmlns="http://www.w3.org/2000/svg" xmlns:xlink="http://www.w3.org/1999/xlink">
<g id="graph0" class="graph" transform="scale(1 1) rotate(0) translate(4 97)">
<title>G</title>
<polygon fill="white" stroke="transparent" points="-4,4 -4,-97 1537,-97 1537,4 -4,4"/>
<!-- Source_ORA_Ext_Vehicle_Off_Road_Data -->
<g id="node1" class="node">
<title>Source_ORA_Ext_Vehicle_Off_Road_Data</title>
<polygon fill="#bfe3ea" stroke="transparent" points="1.5,-34.5 1.5,-57.5 43.5,-57.5 43.5,-34.5 1.5,-34.5"/>
<text text-anchor="start" x="5.5" y="-43.3" font-family="Times,serif" font-weight="bold" font-size="14.00">SRC</text>
<polygon fill="#f5f7f9" stroke="transparent" points="43.5,-34.5 43.5,-57.5 340.5,-57.5 340.5,-34.5 43.5,-34.5"/>
<text text-anchor="start" x="47.5" y="-42.3" font-family="Times,serif" font-size="14.00">Source_ORA_Ext_Vehicle_Off_Road_Data</text>
<polygon fill="none" stroke="black" points="0,-34 0,-59 341,-59 341,-34 0,-34"/>
</g>
<!-- Tfm_LoadRecords -->
<g id="node2" class="node">
<title>Tfm_LoadRecords</title>
<polygon fill="#d6eaf8" stroke="transparent" points="428.5,-34.5 428.5,-57.5 474.5,-57.5 474.5,-34.5 428.5,-34.5"/>
<text text-anchor="start" x="432.5" y="-43.3" font-family="Times,serif" font-weight="bold" font-size="14.00">MDL</text>
<polygon fill="#ffffff" stroke="transparent" points="474.5,-34.5 474.5,-57.5 609.5,-57.5 609.5,-34.5 474.5,-34.5"/>
<text text-anchor="start" x="478.5" y="-42.3" font-family="Times,serif" font-size="14.00">Tfm_LoadRecords</text>
<polygon fill="none" stroke="black" points="427,-34 427,-59 610,-59 610,-34 427,-34"/>
</g>
<!-- Source_ORA_Ext_Vehicle_Off_Road_Data&#45;&gt;Tfm_LoadRecords -->
<g id="edge1" class="edge">
<title>Source_ORA_Ext_Vehicle_Off_Road_Data&#45;&gt;Tfm_LoadRecords</title>
<path fill="none" stroke="black" d="M341.23,-46.5C361.96,-46.5 386.54,-46.5 416.83,-46.5"/>
<polygon fill="black" stroke="black" points="416.87,-50 426.87,-46.5 416.87,-43 416.87,-50"/>
</g>
<!-- TrxOutput_Target -->
<g id="node3" class="node">
<title>TrxOutput_Target</title>
<polygon fill="#d6eaf8" stroke="transparent" points="725.5,-68.5 725.5,-91.5 771.5,-91.5 771.5,-68.5 725.5,-68.5"/>
<text text-anchor="start" x="729.5" y="-77.3" font-family="Times,serif" font-weight="bold" font-size="14.00">MDL</text>
<polygon fill="#ffffff" stroke="transparent" points="771.5,-68.5 771.5,-91.5 907.5,-91.5 907.5,-68.5 771.5,-68.5"/>
<text text-anchor="start" x="775.5" y="-76.3" font-family="Times,serif" font-size="14.00">TrxOutput_Target</text>
<polygon fill="none" stroke="black" points="724.5,-68 724.5,-93 908.5,-93 908.5,-68 724.5,-68"/>
</g>
<!-- Tfm_LoadRecords&#45;&gt;TrxOutput_Target -->
<g id="edge2" class="edge">
<title>Tfm_LoadRecords&#45;&gt;TrxOutput_Target</title>
<path fill="none" stroke="black" d="M561.15,-59.03C602.18,-70.24 630.16,-73.58 714.18,-76.94"/>
<polygon fill="black" stroke="black" points="714.3,-80.45 724.42,-77.34 714.57,-73.45 714.3,-80.45"/>
</g>
<!-- Load_VOR_Exception_File -->
<g id="node5" class="node">
<title>Load_VOR_Exception_File</title>
<polygon fill="#d6eaf8" stroke="transparent" points="697.5,-0.5 697.5,-23.5 743.5,-23.5 743.5,-0.5 697.5,-0.5"/>
<text text-anchor="start" x="701.5" y="-9.3" font-family="Times,serif" font-weight="bold" font-size="14.00">MDL</text>
<polygon fill="#ffffff" stroke="transparent" points="743.5,-0.5 743.5,-23.5 936.5,-23.5 936.5,-0.5 743.5,-0.5"/>
<text text-anchor="start" x="747.5" y="-8.3" font-family="Times,serif" font-size="14.00">Load_VOR_Exception_File</text>
<polygon fill="none" stroke="black" points="696,0 696,-25 937,-25 937,0 696,0"/>
</g>
<!-- Tfm_LoadRecords&#45;&gt;Load_VOR_Exception_File -->
<g id="edge4" class="edge">
<title>Tfm_LoadRecords&#45;&gt;Load_VOR_Exception_File</title>
<path fill="none" stroke="black" d="M561.15,-33.97C597.1,-24.15 623.03,-20.37 685.42,-17.32"/>
<polygon fill="black" stroke="black" points="685.93,-20.8 695.75,-16.84 685.6,-13.81 685.93,-20.8"/>
</g>
<!-- STAGE_SMR_STG_VEHICLE_OFF_ROAD_FACT -->
<g id="node4" class="node">
<title>STAGE_SMR_STG_VEHICLE_OFF_ROAD_FACT</title>
<polygon fill="#d6eaf8" stroke="transparent" points="1086,-68.5 1086,-91.5 1132,-91.5 1132,-68.5 1086,-68.5"/>
<text text-anchor="start" x="1090" y="-77.3" font-family="Times,serif" font-weight="bold" font-size="14.00">MDL</text>
<polygon fill="#ffffff" stroke="transparent" points="1132,-68.5 1132,-91.5 1471,-91.5 1471,-68.5 1132,-68.5"/>
<text text-anchor="start" x="1136" y="-76.3" font-family="Times,serif" font-size="14.00">STAGE_SMR.STG_VEHICLE_OFF_ROAD_FACT</text>
<polygon fill="none" stroke="black" points="1084.5,-68 1084.5,-93 1471.5,-93 1471.5,-68 1084.5,-68"/>
</g>
<!-- TrxOutput_Target&#45;&gt;STAGE_SMR_STG_VEHICLE_OFF_ROAD_FACT -->
<g id="edge3" class="edge">
<title>TrxOutput_Target&#45;&gt;STAGE_SMR_STG_VEHICLE_OFF_ROAD_FACT</title>
<path fill="none" stroke="black" d="M908.67,-83.65C982.38,-86.14 1033.98,-87.73 1074.08,-88.42"/>
<polygon fill="black" stroke="black" points="1074.24,-91.92 1084.3,-88.58 1074.35,-84.93 1074.24,-91.92"/>
</g>
<!-- d_ftpdata_tmp_TEST_VOR_VOR_Supp_Exceptions_20151204_csv -->
<g id="node6" class="node">
<title>d_ftpdata_tmp_TEST_VOR_VOR_Supp_Exceptions_20151204_csv</title>
<polygon fill="#d6eaf8" stroke="transparent" points="1024,-0.5 1024,-23.5 1070,-23.5 1070,-0.5 1024,-0.5"/>
<text text-anchor="start" x="1028" y="-9.3" font-family="Times,serif" font-weight="bold" font-size="14.00">MDL</text>
<polygon fill="#ffffff" stroke="transparent" points="1070,-0.5 1070,-23.5 1532,-23.5 1532,-0.5 1070,-0.5"/>
<text text-anchor="start" x="1074" y="-8.3" font-family="Times,serif" font-size="14.00">/d/ftpdata/tmp/TEST/VOR/VOR_Supp_Exceptions_20151204.csv</text>
<polygon fill="none" stroke="black" points="1023,0 1023,-25 1533,-25 1533,0 1023,0"/>
</g>
<!-- Load_VOR_Exception_File&#45;&gt;d_ftpdata_tmp_TEST_VOR_VOR_Supp_Exceptions_20151204_csv -->
<g id="edge5" class="edge">
<title>Load_VOR_Exception_File&#45;&gt;d_ftpdata_tmp_TEST_VOR_VOR_Supp_Exceptions_20151204_csv</title>
<path fill="none" stroke="black" d="M937.12,-8.4C965.59,-7.45 990.43,-6.67 1012.42,-6.05"/>
<polygon fill="black" stroke="black" points="1012.76,-9.54 1022.65,-5.76 1012.56,-2.54 1012.76,-9.54"/>
</g>
</g>
</svg>
